<svg width="52" height="52" viewBox="0 0 52 52" fill="none" xmlns="http://www.w3.org/2000/svg">
<path d="M51 13.5V38.5C51 48.5 47.875 51 35.375 51H16.625C4.125 51 1 48.5 1 38.5V13.5C1 3.5 4.125 1 16.625 1H35.375C47.875 1 51 3.5 51 13.5Z" stroke="#292D32" stroke-width="1.5" stroke-linecap="round" stroke-linejoin="round"/>
<path d="M32.25 9.75H19.75" stroke="#292D32" stroke-width="1.5" stroke-linecap="round" stroke-linejoin="round"/>
<path d="M26 43.75C28.6751 43.75 30.8438 42.0151 30.8438 39.875C30.8438 37.7349 28.6751 36 26 36C23.3249 36 21.1562 37.7349 21.1562 39.875C21.1562 42.0151 23.3249 43.75 26 43.75Z" stroke="#292D32" stroke-width="1.5" stroke-linecap="round" stroke-linejoin="round"/>
</svg>
