<svg width="65" height="63" viewBox="0 0 65 63" fill="none" xmlns="http://www.w3.org/2000/svg">
<path d="M46.0281 10.5H18.9448C8.57184 10.5 5.67393 12.915 5.43018 22.3125C10.6573 22.3125 14.8823 26.4338 14.8823 31.5C14.8823 36.5662 10.6573 40.6613 5.43018 40.6875C5.67393 50.085 8.57184 52.5 18.9448 52.5H46.0281C56.8614 52.5 59.5698 49.875 59.5698 39.375V23.625C59.5698 13.125 56.8614 10.5 46.0281 10.5Z" stroke="#292D32" stroke-width="1.5" stroke-linecap="round" stroke-linejoin="round"/>
<path d="M24.3567 10.5V19.6875" stroke="#292D32" stroke-width="1.5" stroke-linecap="round" stroke-linejoin="round"/>
<path d="M24.3567 43.3125V52.5" stroke="#292D32" stroke-width="1.5" stroke-linecap="round" stroke-linejoin="round"/>
<path d="M40.6928 24.4912L42.372 27.7725C42.5345 28.0875 42.8595 28.3237 43.2115 28.3762L46.949 28.9012C47.8699 29.0325 48.249 30.135 47.572 30.765L44.8636 33.3112C44.5928 33.5475 44.4845 33.915 44.5386 34.2825L45.1886 37.8787C45.3511 38.7712 44.3761 39.4537 43.5636 39.0337L40.2324 37.3275C39.9074 37.17 39.5011 37.17 39.1761 37.3275L35.8449 39.0337C35.0053 39.4537 34.0574 38.7712 34.2199 37.8787L34.8699 34.2825C34.924 33.915 34.8157 33.5737 34.5449 33.3112L31.8636 30.765C31.1865 30.135 31.5657 29.0325 32.4865 28.9012L36.224 28.3762C36.6032 28.3237 36.9011 28.1137 37.0636 27.7725L38.7157 24.4912C39.0949 23.6775 40.2865 23.6775 40.6928 24.4912Z" stroke="#292D32" stroke-width="1.5" stroke-linecap="round" stroke-linejoin="round"/>
</svg>
